<svg xmlns="http://www.w3.org/2000/svg" width="20.045" height="18.953" viewBox="0 0 20.045 18.953"><defs><style>.a{fill:#fff;}</style></defs><g transform="translate(0 -2.616)"><g transform="translate(0 2.616)"><g transform="translate(2.506 9.765)"><path class="a" d="M21.034,35.187H15.187V29.758H11.846v5.429H6v-8.77a.418.418,0,1,1,.835,0v7.935h4.176V28.923h5.011v5.429H20.2V26.835a.418.418,0,1,1,.835,0Z" transform="translate(-6 -26)"/></g><path class="a" d="M19.627,12.8a.416.416,0,0,1-.289-.116L10.022,3.772.706,12.683a.418.418,0,0,1-.578-.6l9.894-9.464,9.893,9.463a.418.418,0,0,1-.289.72Z" transform="translate(0 -2.616)"/><g transform="translate(12.946 1.413)"><path class="a" d="M34.341,9.758a.417.417,0,0,1-.418-.418V6.835H31.418a.418.418,0,0,1,0-.835h3.341V9.341A.417.417,0,0,1,34.341,9.758Z" transform="translate(-31 -6)"/></g></g></g></svg>