<svg xmlns="http://www.w3.org/2000/svg" width="37.71" height="31.801" viewBox="0 0 37.71 31.801"><path d="M213.41,93.9c0-2.366-3.128-4.608-7.925-6,1.107-4.629.615-8.312-1.553-9.492a3.52,3.52,0,0,0-1.722-.408V79.63a1.862,1.862,0,0,1,.876.189c1.045.568,1.5,2.73,1.145,5.51a21.325,21.325,0,0,1-.392,2.14,39.157,39.157,0,0,0-4.881-.793,36.028,36.028,0,0,0-3.2-3.639c2.506-2.205,4.858-3.414,6.457-3.414V78h0c-2.114,0-4.881,1.427-7.679,3.9-2.8-2.46-5.565-3.872-7.679-3.872v1.623c1.591,0,3.951,1.2,6.457,3.392a34.871,34.871,0,0,0-3.175,3.632,37.73,37.73,0,0,0-4.889.8,20.909,20.909,0,0,1-.4-2.111c-.361-2.781.085-4.942,1.122-5.517a1.789,1.789,0,0,1,.884-.189V78.036h0a3.581,3.581,0,0,0-1.737.408c-2.16,1.179-2.644,4.855-1.53,9.47-4.781,1.4-7.894,3.632-7.894,5.99s3.128,4.608,7.925,6c-1.107,4.629-.615,8.312,1.553,9.492a3.529,3.529,0,0,0,1.729.408c2.114,0,4.881-1.427,7.679-3.9,2.8,2.46,5.565,3.872,7.679,3.872a3.58,3.58,0,0,0,1.737-.408c2.16-1.179,2.644-4.855,1.53-9.47C210.3,98.5,213.41,96.263,213.41,93.9ZM203.4,89.049c-.284.939-.638,1.907-1.038,2.875-.315-.582-.646-1.165-1.007-1.747s-.73-1.15-1.107-1.7C201.342,88.627,202.4,88.816,203.4,89.049Zm-3.52,7.752c-.6.983-1.214,1.914-1.852,2.781-1.145.095-2.306.146-3.474.146s-2.321-.051-3.459-.138c-.638-.866-1.261-1.791-1.86-2.766-.584-.954-1.115-1.922-1.6-2.9.477-.975,1.015-1.951,1.591-2.9.6-.983,1.214-1.914,1.852-2.781,1.145-.095,2.306-.146,3.474-.146s2.321.051,3.459.138c.638.866,1.261,1.791,1.86,2.766.584.954,1.115,1.922,1.6,2.9C200.989,94.872,200.458,95.848,199.882,96.8Zm2.483-.946a30.1,30.1,0,0,1,1.061,2.9c-1.007.233-2.068.429-3.167.582.377-.56.753-1.136,1.107-1.725S202.049,96.437,202.365,95.855Zm-7.794,7.767a30.554,30.554,0,0,1-2.137-2.329c.692.029,1.4.051,2.114.051s1.437-.015,2.137-.051A28.9,28.9,0,0,1,194.57,103.622Zm-5.719-4.287c-1.091-.153-2.145-.342-3.151-.575.284-.939.638-1.907,1.038-2.875.315.582.646,1.165,1.007,1.747S188.475,98.781,188.852,99.334Zm5.68-15.147a30.556,30.556,0,0,1,2.137,2.329c-.692-.029-1.4-.051-2.114-.051s-1.437.015-2.137.051A28.909,28.909,0,0,1,194.532,84.187Zm-5.688,4.287c-.377.56-.753,1.135-1.107,1.725s-.684,1.165-1,1.747a30.091,30.091,0,0,1-1.061-2.9C186.684,88.824,187.745,88.627,188.844,88.474Zm-6.956,9.113c-2.721-1.1-4.481-2.54-4.481-3.683s1.76-2.591,4.481-3.683c.661-.269,1.384-.51,2.129-.735a33.794,33.794,0,0,0,1.729,4.433,33.308,33.308,0,0,0-1.706,4.411C183.279,98.1,182.556,97.857,181.888,97.587Zm4.135,10.4c-1.045-.568-1.5-2.73-1.145-5.51a21.324,21.324,0,0,1,.392-2.14,39.156,39.156,0,0,0,4.881.793,36.03,36.03,0,0,0,3.2,3.639c-2.506,2.205-4.858,3.414-6.457,3.414A1.917,1.917,0,0,1,186.023,107.989Zm18.232-5.546c.361,2.781-.085,4.942-1.122,5.517a1.789,1.789,0,0,1-.884.189c-1.591,0-3.951-1.2-6.457-3.392a34.875,34.875,0,0,0,3.175-3.632,37.728,37.728,0,0,0,4.889-.8A19.4,19.4,0,0,1,204.256,102.442Zm2.959-4.855c-.661.269-1.384.51-2.129.735a33.8,33.8,0,0,0-1.729-4.433,33.31,33.31,0,0,0,1.706-4.411c.761.226,1.484.473,2.16.742,2.721,1.1,4.481,2.54,4.481,3.683S209.936,96.5,207.215,97.587Z" transform="translate(-175.7 -78)" fill="#61dafb"/><path d="M320.8,78.4Z" transform="translate(-309.647 -78.371)" fill="#61dafb"/><circle cx="3.326" cy="3.326" r="3.326" transform="translate(15.521 12.578)" fill="#61dafb"/><path d="M520.5,78.1Z" transform="translate(-493.997 -78.093)" fill="#61dafb"/></svg>