<svg xmlns="http://www.w3.org/2000/svg" width="19.4" height="27.383" viewBox="0 0 19.4 27.383"><g transform="translate(-193.633 -276.362)"><g transform="translate(193.633 276.362)"><path d="M94.033,100.62l-1.767,19.8-7.944,2.2-7.923-2.2-1.766-19.8Z" transform="translate(-74.633 -95.239)" fill="#fff"/><path d="M150.31,268.217l.239,2.429h5.97v-2.429Z" transform="translate(-146.263 -253.872)" fill="#379ad6"/><path d="M148.778,176.3h-6.646l.241,2.429h6.405Z" transform="translate(-138.522 -166.876)" fill="#379ad6"/><path d="M161.749,341.524V339l-.011,0-2.712-.73-.173-1.937h-2.444l.341,3.813,4.988,1.381Z" transform="translate(-152.035 -318.345)" fill="#379ad6"/><path d="M160,0h2.942V1.23H161.23V2.46h1.711V3.69H160Z" transform="translate(-155.434)" fill="#fff"/><path d="M226,0h2.942V1.07H227.23v.214h1.711v2.46H226V2.621h1.711V2.407H226Z" transform="translate(-217.904)" fill="#fff"/><path d="M292,0h2.942V1.07H293.23v.214h1.711v2.46H292V2.621h1.711V2.407H292Z" transform="translate(-280.375)" fill="#fff"/><path d="M258.834,183.649l-.282,3.15-2.709.731v2.527l4.979-1.38.037-.41.571-6.394.059-.652.438-4.916h-6.084v2.429h3.422l-.221,2.487h-3.2v2.429Z" transform="translate(-246.151 -166.876)" fill="#379ad6"/></g></g></svg>