<svg xmlns="http://www.w3.org/2000/svg" width="19.4" height="27.1" viewBox="0 0 19.4 27.1"><g transform="translate(-29.6 -23.1)"><path d="M32.6,25.6h1.1v1.2h1.2V23.1H33.7v1.3H32.6V23.1H31.3v3.7h1.3Z" fill="#fff"/><path d="M36.5,26.8h1.2V24.4h1.1V23.1H35.4v1.3h1.1Z" fill="#fff"/><path d="M40.5,25l.9,1.3h0l.9-1.3v1.8h1.2V23.1H42.2l-.8,1.3-.8-1.3H39.3v3.7h1.2Z" fill="#fff"/><path d="M47,25.6H45.3V23.1H44.1v3.7H47Z" fill="#fff"/><path d="M29.6,28.4,31.4,48l7.9,2.2L47.2,48,49,28.4ZM45,34.8H35.8l.2,2.5h8.8l-.7,7.4-4.9,1.4h0l-4.9-1.4L34,40.8h2.4l.2,2,2.7.7h0l2.7-.7.3-3.1H33.9l-.7-7.3h12Z" fill="#fff"/></g></svg>