<svg xmlns="http://www.w3.org/2000/svg" width="29.5" height="20.198" viewBox="0 0 29.5 20.198"><path d="M29.384,9.432c-.21-.21-2.91-3.612-3.366-4.173-.491-.561-.7-.456-1.017-.421s-3.717.631-4.1.666c-.386.07-.631.21-.386.561.21.316,2.454,3.471,2.945,4.208l-8.941,2.139L7.434.526C7.153.105,7.083-.035,6.452,0S.877.456.526.456C.175.491-.21.631.14,1.473s5.961,12.9,6.1,13.254a1.205,1.205,0,0,0,1.508.7c.982-.245,4.348-1.122,6.206-1.613.982,1.753,2.945,5.33,3.331,5.856.491.7.842.561,1.578.351.6-.175,9.187-3.261,9.572-3.436s.631-.281.351-.666c-.21-.281-2.454-3.331-3.647-4.909.806-.21,3.717-.982,4.032-1.087.351-.105.421-.281.21-.491ZM13.149,12.763c-.105.035-5.119,1.227-5.365,1.3-.281.07-.281.035-.281-.07-.07-.105-5.961-12.307-6.066-12.448-.07-.14-.07-.281,0-.281S6.171.842,6.312.842c.175,0,.14.035.21.14,0,0,6.557,11.326,6.662,11.5.14.175.07.245-.035.281Zm14.1,2.63c.07.14.175.21-.105.281-.245.105-8.45,2.875-8.626,2.945s-.281.105-.491-.21S15.148,13.5,15.148,13.5l8.731-2.279c.21-.07.281-.105.421.105.14.245,2.875,3.962,2.945,4.067Zm.561-6.171c-.21.035-3.4.842-3.4.842l-2.63-3.577c-.07-.105-.14-.21.035-.245s3.156-.561,3.3-.6.245-.07.421.175c.175.21,2.419,3.086,2.525,3.191s-.035.175-.245.21Z" transform="translate(-0.002 0.005)" fill="#fb503b"/></svg>