<svg xmlns="http://www.w3.org/2000/svg" width="20.12" height="13.1" viewBox="0 0 20.12 13.1"><defs><style>.a{fill:#fff;}</style></defs><path class="a" d="M27.065,34a.346.346,0,0,0,.018-.107v-12.4a.344.344,0,0,0-.019-.108s0-.009,0-.014A.348.348,0,0,0,27,21.26s0,0,0-.007l0,0a.351.351,0,0,0-.1-.075l-.008,0a.345.345,0,0,0-.119-.029H7.291a.35.35,0,0,0-.121.029l-.007,0a.346.346,0,0,0-.1.076l0,0s0,0,0,.007a.35.35,0,0,0-.065.108s0,.009,0,.014a.344.344,0,0,0-.019.108v12.4A.346.346,0,0,0,6.983,34l0,.014a.35.35,0,0,0,.065.108l0,.006,0,0a.354.354,0,0,0,.037.033l.017.014a.325.325,0,0,0,.049.027l.012.007a.35.35,0,0,0,.137.028H26.734a.346.346,0,0,0,.137-.028l.019-.01a.357.357,0,0,0,.042-.024l.02-.017a.321.321,0,0,0,.034-.03l.006-.005s0,0,0-.007a.35.35,0,0,0,.064-.107A.129.129,0,0,0,27.065,34ZM7.664,22.283l5.893,5.382L7.664,33.09ZM19.742,27.4a.334.334,0,0,0-.07.052c-.008.008-.01.019-.017.028l-2.63,2.4L8.217,21.839H25.831Zm-5.666.738,2.712,2.477a.35.35,0,0,0,.472,0l2.678-2.446,5.892,5.369H8.212Zm6.382-.443,5.926-5.413V33.1Z" transform="translate(-6.964 -21.139)"/></svg>