<svg xmlns="http://www.w3.org/2000/svg" xmlns:xlink="http://www.w3.org/1999/xlink" width="1920" height="340" viewBox="0 0 1920 340"><defs><clipPath id="a"><rect width="1920" height="340" transform="translate(2 -5)" fill="#dedede"/></clipPath><linearGradient id="b" x1="0.5" x2="0.5" y2="1" gradientUnits="objectBoundingBox"><stop offset="0" stop-color="#977ed3"/><stop offset="1" stop-color="#ff8a5e"/></linearGradient></defs><g transform="translate(-2 5)" clip-path="url(#a)"><path d="M0,0H1604.46V1603.377H0Z" transform="translate(-174.847 170.428) rotate(-45)" fill="url(#b)"/><g transform="translate(938.021 -904.34) rotate(45)" opacity="0.09"><g transform="translate(-48 -145.222)"><line y2="1717.29" transform="translate(357.443 0)" fill="none" stroke="#fff" stroke-width="1"/><line y2="1717.29" transform="translate(536.164 0)" fill="none" stroke="#fff" stroke-width="1"/><line y2="1717.29" transform="translate(714.886 0)" fill="none" stroke="#fff" stroke-width="1"/><line y2="1717.29" transform="translate(1072.329 0)" fill="none" stroke="#fff" stroke-width="1"/><line y2="1717.29" transform="translate(893.607 0)" fill="none" stroke="#fff" stroke-width="1"/><line y2="1717.29" transform="translate(1251.05 0)" fill="none" stroke="#fff" stroke-width="1"/><line y2="1717.29" transform="translate(1608.493 0)" fill="none" stroke="#fff" stroke-width="1"/><line y2="1717.29" transform="translate(1429.772 0)" fill="none" stroke="#fff" stroke-width="1"/><line y2="1717.29" transform="translate(178.721 0)" fill="none" stroke="#fff" stroke-width="1"/><line y2="1717.29" transform="translate(0 0)" fill="none" stroke="#fff" stroke-width="1"/></g><g transform="translate(1612.323 -42.661) rotate(90)"><line y2="1660.323" transform="translate(339.359)" fill="none" stroke="#fff" stroke-width="1"/><line y2="1660.323" transform="translate(509.039)" fill="none" stroke="#fff" stroke-width="1"/><line y2="1660.323" transform="translate(678.719)" fill="none" stroke="#fff" stroke-width="1"/><line y2="1660.323" transform="translate(1018.078)" fill="none" stroke="#fff" stroke-width="1"/><line y2="1660.323" transform="translate(848.399)" fill="none" stroke="#fff" stroke-width="1"/><line y2="1660.323" transform="translate(1187.758)" fill="none" stroke="#fff" stroke-width="1"/><line y2="1660.323" transform="translate(1527.117)" fill="none" stroke="#fff" stroke-width="1"/><line y2="1660.323" transform="translate(1357.438)" fill="none" stroke="#fff" stroke-width="1"/><line y2="1660.323" transform="translate(169.68)" fill="none" stroke="#fff" stroke-width="1"/><line y2="1660.323" fill="none" stroke="#fff" stroke-width="1"/></g></g><g transform="translate(-0.668 15.199)" opacity="0.35"><line x2="27.044" transform="translate(148.743 6.761)" fill="none" stroke="#000" stroke-width="1"/><line x2="45.637" transform="translate(172.407 15.212)" fill="none" stroke="#000" stroke-width="1"/><line x2="40.566" transform="translate(376.928 0)" fill="none" stroke="#000" stroke-width="1"/><line x2="15.212" transform="translate(427.636 0)" fill="none" stroke="#000" stroke-width="1"/><line x2="37.186" transform="translate(363.406 10.142)" fill="none" stroke="#000" stroke-width="1"/><line x2="27.044" transform="translate(94.655 275.512)" fill="none" stroke="#000" stroke-width="1"/><line x2="37.186" transform="translate(106.486 287.344)" fill="none" stroke="#000" stroke-width="1"/><path d="M-2.865,0H8.826" transform="translate(155.217 287.344)" fill="none" stroke="#000" stroke-width="1"/><line x2="21.973" transform="translate(114.938 309.318)" fill="none" stroke="#000" stroke-width="1"/><line x2="6.761" transform="translate(145.362 309.318)" fill="none" stroke="#000" stroke-width="1"/><line x2="45.637" transform="translate(172.407 326.22)" fill="none" stroke="#000" stroke-width="1"/><line x2="27.044" transform="translate(478.344 275.512)" fill="none" stroke="#000" stroke-width="1"/><line x2="16.903" transform="translate(498.627 138.601)" fill="none" stroke="#000" stroke-width="1"/><line x2="37.186" transform="translate(515.529 128.46)" fill="none" stroke="#000" stroke-width="1"/><line x2="16.903" transform="translate(436.087 114.938)" fill="none" stroke="#000" stroke-width="1"/><line x2="21.973" transform="translate(196.07 219.734)" fill="none" stroke="#000" stroke-width="1"/><line x2="27.044" transform="translate(130.15 152.123)" fill="none" stroke="#000" stroke-width="1"/><line x2="27.044" transform="translate(620.326 246.778)" fill="none" stroke="#000" stroke-width="1"/><line x2="37.186" transform="translate(632.157 258.61)" fill="none" stroke="#000" stroke-width="1"/><path d="M-2.865,0H8.826" transform="translate(680.888 258.61)" fill="none" stroke="#000" stroke-width="1"/><line x2="21.973" transform="translate(640.609 280.583)" fill="none" stroke="#000" stroke-width="1"/><line x2="6.761" transform="translate(671.034 280.583)" fill="none" stroke="#000" stroke-width="1"/><line x2="27.044" transform="translate(606.804 67.61)" fill="none" stroke="#000" stroke-width="1"/><line x2="27.044" transform="translate(0 67.61)" fill="none" stroke="#000" stroke-width="1"/><line x2="45.637" transform="translate(23.664 76.062)" fill="none" stroke="#000" stroke-width="1"/></g><g transform="translate(-12.5 23.65)" opacity="0.5"><line x2="27.044" transform="translate(294.105 278.893)" fill="none" stroke="#fffefe" stroke-width="1"/><line x2="45.637" transform="translate(317.769 287.344)" fill="none" stroke="#fffefe" stroke-width="1"/><line x2="40.566" transform="translate(187.619 60.849)" fill="none" stroke="#fffefe" stroke-width="1"/><line x2="15.212" transform="translate(238.327 60.849)" fill="none" stroke="#fffefe" stroke-width="1"/><line x2="37.186" transform="translate(174.097 70.991)" fill="none" stroke="#fffefe" stroke-width="1"/><line x2="27.044" transform="translate(425.946 158.885)" fill="none" stroke="#fffefe" stroke-width="1"/><line x2="37.186" transform="translate(437.778 170.716)" fill="none" stroke="#fffefe" stroke-width="1"/><path d="M-2.865,0H8.826" transform="translate(486.508 170.716)" fill="none" stroke="#fffefe" stroke-width="1"/><line x2="21.973" transform="translate(446.229 192.69)" fill="none" stroke="#fffefe" stroke-width="1"/><line x2="6.761" transform="translate(476.654 192.69)" fill="none" stroke="#fffefe" stroke-width="1"/><line x2="45.637" transform="translate(564.547)" fill="none" stroke="#fffefe" stroke-width="1" opacity="0.35"/><line x2="27.044" transform="translate(596.662 11.832)" fill="none" stroke="#fffefe" stroke-width="1" opacity="0.35"/><line x2="16.903" transform="translate(371.857 35.495)" fill="none" stroke="#fffefe" stroke-width="1"/><line x2="37.186" transform="translate(388.76 25.354)" fill="none" stroke="#fffefe" stroke-width="1"/><line x2="16.903" transform="translate(309.318 11.832)" fill="none" stroke="#fffefe" stroke-width="1"/><line x2="21.973" transform="translate(527.361 103.106)" fill="none" stroke="#fffefe" stroke-width="1"/><line x2="27.044" transform="translate(461.441 54.088)" fill="none" stroke="#fffefe" stroke-width="1"/><line x2="40.566" transform="translate(60.849 133.531)" fill="none" stroke="#fff" stroke-width="1"/><line x2="13.522" transform="translate(50.708 145.362)" fill="none" stroke="#fff" stroke-width="1"/><line x2="3.381" transform="translate(74.371 145.362)" fill="none" stroke="#fff" stroke-width="1"/><line x2="40.566" transform="translate(542.574 294.105)" fill="none" stroke="#fff" stroke-width="1"/><line x2="13.522" transform="translate(532.432 305.937)" fill="none" stroke="#fff" stroke-width="1"/><line x2="3.381" transform="translate(556.096 305.937)" fill="none" stroke="#fff" stroke-width="1"/><line x2="40.566" transform="translate(659.202 187.619)" fill="none" stroke="#fffefe" stroke-width="1" opacity="0.35"/><line x2="15.212" transform="translate(709.909 187.619)" fill="none" stroke="#fffefe" stroke-width="1" opacity="0.35"/><line x2="37.186" transform="translate(645.68 197.76)" fill="none" stroke="#fffefe" stroke-width="1" opacity="0.35"/><line x2="21.973" transform="translate(610.184 138.601)" fill="none" stroke="#fffefe" stroke-width="1" opacity="0.35"/><line x2="6.761" transform="translate(640.609 138.601)" fill="none" stroke="#fffefe" stroke-width="1" opacity="0.35"/><line x2="37.186" transform="translate(0 231.566)" fill="none" stroke="#fffefe" stroke-width="1" opacity="0.35"/><path d="M-2.865,0H8.826" transform="translate(48.73 231.566)" fill="none" stroke="#fffefe" stroke-width="1" opacity="0.35"/><line x2="21.973" transform="translate(8.451 253.539)" fill="none" stroke="#fffefe" stroke-width="1" opacity="0.35"/><line x2="6.761" transform="translate(38.876 253.539)" fill="none" stroke="#fffefe" stroke-width="1" opacity="0.35"/></g><g transform="translate(260.477 -11)" opacity="0.21"><text transform="translate(271.663 111.76)" font-size="23" font-family="RobotoCondensed-Regular, Roboto"><tspan x="-14.678" y="0">&lt;/&gt;</tspan></text><text transform="translate(80.92 22)" font-size="23" font-family="RobotoCondensed-Regular, Roboto"><tspan x="-14.678" y="0">&lt;/&gt;</tspan></text><text transform="translate(42 242.371)" font-size="23" font-family="RobotoCondensed-Regular, Roboto"><tspan x="-14.678" y="0">&lt;/&gt;</tspan></text></g><g transform="translate(33.982 38.018)" opacity="0.57"><text transform="translate(695.866 272.115)" fill="#fff" font-size="23" font-family="RobotoCondensed-Regular, Roboto"><tspan x="-14.678" y="0">&lt;/&gt;</tspan></text><text transform="translate(15 307.654)" fill="#fff" font-size="23" font-family="RobotoCondensed-Regular, Roboto" opacity="0.35"><tspan x="-14.678" y="0">&lt;/&gt;</tspan></text><text transform="translate(96.133 22)" fill="#fff" font-size="23" font-family="RobotoCondensed-Regular, Roboto"><tspan x="-14.678" y="0">&lt;/&gt;</tspan></text></g><g transform="translate(725)"><g transform="translate(-0.668 15.199)" opacity="0.35"><line x2="27.044" transform="translate(148.743 6.761)" fill="none" stroke="#000" stroke-width="1"/><line x2="45.637" transform="translate(172.407 15.212)" fill="none" stroke="#000" stroke-width="1"/><line x2="40.566" transform="translate(376.928 0)" fill="none" stroke="#000" stroke-width="1"/><line x2="15.212" transform="translate(427.636 0)" fill="none" stroke="#000" stroke-width="1"/><line x2="37.186" transform="translate(363.406 10.142)" fill="none" stroke="#000" stroke-width="1"/><line x2="27.044" transform="translate(94.655 275.512)" fill="none" stroke="#000" stroke-width="1"/><line x2="37.186" transform="translate(106.486 287.344)" fill="none" stroke="#000" stroke-width="1"/><path d="M-2.865,0H8.826" transform="translate(155.217 287.344)" fill="none" stroke="#000" stroke-width="1"/><line x2="21.973" transform="translate(114.938 309.318)" fill="none" stroke="#000" stroke-width="1"/><line x2="6.761" transform="translate(145.362 309.318)" fill="none" stroke="#000" stroke-width="1"/><line x2="45.637" transform="translate(172.407 326.22)" fill="none" stroke="#000" stroke-width="1"/><line x2="27.044" transform="translate(478.344 275.512)" fill="none" stroke="#000" stroke-width="1"/><line x2="16.903" transform="translate(498.627 138.601)" fill="none" stroke="#000" stroke-width="1"/><line x2="37.186" transform="translate(515.529 128.46)" fill="none" stroke="#000" stroke-width="1"/><line x2="16.903" transform="translate(436.087 114.938)" fill="none" stroke="#000" stroke-width="1"/><line x2="21.973" transform="translate(196.07 219.734)" fill="none" stroke="#000" stroke-width="1"/><line x2="27.044" transform="translate(130.15 152.123)" fill="none" stroke="#000" stroke-width="1"/><line x2="27.044" transform="translate(620.326 246.778)" fill="none" stroke="#000" stroke-width="1"/><line x2="37.186" transform="translate(632.157 258.61)" fill="none" stroke="#000" stroke-width="1"/><path d="M-2.865,0H8.826" transform="translate(680.888 258.61)" fill="none" stroke="#000" stroke-width="1"/><line x2="21.973" transform="translate(640.609 280.583)" fill="none" stroke="#000" stroke-width="1"/><line x2="6.761" transform="translate(671.034 280.583)" fill="none" stroke="#000" stroke-width="1"/><line x2="27.044" transform="translate(606.804 67.61)" fill="none" stroke="#000" stroke-width="1"/><line x2="27.044" transform="translate(0 67.61)" fill="none" stroke="#000" stroke-width="1"/><line x2="45.637" transform="translate(23.664 76.062)" fill="none" stroke="#000" stroke-width="1"/></g><g transform="translate(-12.5 23.65)" opacity="0.5"><line x2="27.044" transform="translate(294.105 278.893)" fill="none" stroke="#fffefe" stroke-width="1"/><line x2="45.637" transform="translate(317.769 287.344)" fill="none" stroke="#fffefe" stroke-width="1"/><line x2="40.566" transform="translate(187.619 60.849)" fill="none" stroke="#fffefe" stroke-width="1"/><line x2="15.212" transform="translate(238.327 60.849)" fill="none" stroke="#fffefe" stroke-width="1"/><line x2="37.186" transform="translate(174.097 70.991)" fill="none" stroke="#fffefe" stroke-width="1"/><line x2="27.044" transform="translate(425.946 158.885)" fill="none" stroke="#fffefe" stroke-width="1"/><line x2="37.186" transform="translate(437.778 170.716)" fill="none" stroke="#fffefe" stroke-width="1"/><path d="M-2.865,0H8.826" transform="translate(486.508 170.716)" fill="none" stroke="#fffefe" stroke-width="1"/><line x2="21.973" transform="translate(446.229 192.69)" fill="none" stroke="#fffefe" stroke-width="1"/><line x2="6.761" transform="translate(476.654 192.69)" fill="none" stroke="#fffefe" stroke-width="1"/><line x2="45.637" transform="translate(564.547)" fill="none" stroke="#fffefe" stroke-width="1" opacity="0.35"/><line x2="27.044" transform="translate(596.662 11.832)" fill="none" stroke="#fffefe" stroke-width="1" opacity="0.35"/><line x2="16.903" transform="translate(371.857 35.495)" fill="none" stroke="#fffefe" stroke-width="1"/><line x2="37.186" transform="translate(388.76 25.354)" fill="none" stroke="#fffefe" stroke-width="1"/><line x2="16.903" transform="translate(309.318 11.832)" fill="none" stroke="#fffefe" stroke-width="1"/><line x2="21.973" transform="translate(527.361 103.106)" fill="none" stroke="#fffefe" stroke-width="1"/><line x2="27.044" transform="translate(461.441 54.088)" fill="none" stroke="#fffefe" stroke-width="1"/><line x2="40.566" transform="translate(60.849 133.531)" fill="none" stroke="#fff" stroke-width="1"/><line x2="13.522" transform="translate(50.708 145.362)" fill="none" stroke="#fff" stroke-width="1"/><line x2="3.381" transform="translate(74.371 145.362)" fill="none" stroke="#fff" stroke-width="1"/><line x2="40.566" transform="translate(542.574 294.105)" fill="none" stroke="#fff" stroke-width="1"/><line x2="13.522" transform="translate(532.432 305.937)" fill="none" stroke="#fff" stroke-width="1"/><line x2="3.381" transform="translate(556.096 305.937)" fill="none" stroke="#fff" stroke-width="1"/><line x2="40.566" transform="translate(659.202 187.619)" fill="none" stroke="#fffefe" stroke-width="1" opacity="0.35"/><line x2="15.212" transform="translate(709.909 187.619)" fill="none" stroke="#fffefe" stroke-width="1" opacity="0.35"/><line x2="37.186" transform="translate(645.68 197.76)" fill="none" stroke="#fffefe" stroke-width="1" opacity="0.35"/><line x2="21.973" transform="translate(610.184 138.601)" fill="none" stroke="#fffefe" stroke-width="1" opacity="0.35"/><line x2="6.761" transform="translate(640.609 138.601)" fill="none" stroke="#fffefe" stroke-width="1" opacity="0.35"/><line x2="37.186" transform="translate(0 231.566)" fill="none" stroke="#fffefe" stroke-width="1" opacity="0.35"/><path d="M-2.865,0H8.826" transform="translate(48.73 231.566)" fill="none" stroke="#fffefe" stroke-width="1" opacity="0.35"/><line x2="21.973" transform="translate(8.451 253.539)" fill="none" stroke="#fffefe" stroke-width="1" opacity="0.35"/><line x2="6.761" transform="translate(38.876 253.539)" fill="none" stroke="#fffefe" stroke-width="1" opacity="0.35"/></g><g transform="translate(33.982 38.018)" opacity="0.57"><text transform="translate(523.866 50.115)" fill="#fff" font-size="23" font-family="RobotoCondensed-Regular, Roboto"><tspan x="-14.678" y="0">&lt;/&gt;</tspan></text><text transform="translate(15 307.654)" fill="#fff" font-size="23" font-family="RobotoCondensed-Regular, Roboto" opacity="0.35"><tspan x="-14.678" y="0">&lt;/&gt;</tspan></text><text transform="translate(96.133 22)" fill="#fff" font-size="23" font-family="RobotoCondensed-Regular, Roboto"><tspan x="-14.678" y="0">&lt;/&gt;</tspan></text></g></g><g transform="translate(1450)"><g transform="translate(-0.668 15.199)" opacity="0.35"><line x2="27.044" transform="translate(148.743 6.761)" fill="none" stroke="#000" stroke-width="1"/><line x2="45.637" transform="translate(172.407 15.212)" fill="none" stroke="#000" stroke-width="1"/><line x2="40.566" transform="translate(376.928 0)" fill="none" stroke="#000" stroke-width="1"/><line x2="15.212" transform="translate(427.636 0)" fill="none" stroke="#000" stroke-width="1"/><line x2="37.186" transform="translate(363.406 10.142)" fill="none" stroke="#000" stroke-width="1"/><line x2="27.044" transform="translate(94.655 275.512)" fill="none" stroke="#000" stroke-width="1"/><line x2="37.186" transform="translate(106.486 287.344)" fill="none" stroke="#000" stroke-width="1"/><path d="M-2.865,0H8.826" transform="translate(155.217 287.344)" fill="none" stroke="#000" stroke-width="1"/><line x2="21.973" transform="translate(114.938 309.318)" fill="none" stroke="#000" stroke-width="1"/><line x2="6.761" transform="translate(145.362 309.318)" fill="none" stroke="#000" stroke-width="1"/><line x2="45.637" transform="translate(172.407 326.22)" fill="none" stroke="#000" stroke-width="1"/><line x2="27.044" transform="translate(478.344 275.512)" fill="none" stroke="#000" stroke-width="1"/><line x2="16.903" transform="translate(498.627 138.601)" fill="none" stroke="#000" stroke-width="1"/><line x2="37.186" transform="translate(515.529 128.46)" fill="none" stroke="#000" stroke-width="1"/><line x2="16.903" transform="translate(436.087 114.938)" fill="none" stroke="#000" stroke-width="1"/><line x2="21.973" transform="translate(196.07 219.734)" fill="none" stroke="#000" stroke-width="1"/><line x2="27.044" transform="translate(130.15 152.123)" fill="none" stroke="#000" stroke-width="1"/><line x2="27.044" transform="translate(620.326 246.778)" fill="none" stroke="#000" stroke-width="1"/><line x2="37.186" transform="translate(632.157 258.61)" fill="none" stroke="#000" stroke-width="1"/><path d="M-2.865,0H8.826" transform="translate(680.888 258.61)" fill="none" stroke="#000" stroke-width="1"/><line x2="21.973" transform="translate(640.609 280.583)" fill="none" stroke="#000" stroke-width="1"/><line x2="6.761" transform="translate(671.034 280.583)" fill="none" stroke="#000" stroke-width="1"/><line x2="27.044" transform="translate(606.804 67.61)" fill="none" stroke="#000" stroke-width="1"/><line x2="27.044" transform="translate(0 67.61)" fill="none" stroke="#000" stroke-width="1"/><line x2="45.637" transform="translate(23.664 76.062)" fill="none" stroke="#000" stroke-width="1"/></g><g transform="translate(-12.5 23.65)" opacity="0.5"><line x2="27.044" transform="translate(294.105 278.893)" fill="none" stroke="#fffefe" stroke-width="1"/><line x2="45.637" transform="translate(317.769 287.344)" fill="none" stroke="#fffefe" stroke-width="1"/><line x2="40.566" transform="translate(187.619 60.849)" fill="none" stroke="#fffefe" stroke-width="1"/><line x2="15.212" transform="translate(238.327 60.849)" fill="none" stroke="#fffefe" stroke-width="1"/><line x2="37.186" transform="translate(174.097 70.991)" fill="none" stroke="#fffefe" stroke-width="1"/><line x2="27.044" transform="translate(425.946 158.885)" fill="none" stroke="#fffefe" stroke-width="1"/><line x2="37.186" transform="translate(437.778 170.716)" fill="none" stroke="#fffefe" stroke-width="1"/><path d="M-2.865,0H8.826" transform="translate(486.508 170.716)" fill="none" stroke="#fffefe" stroke-width="1"/><line x2="21.973" transform="translate(446.229 192.69)" fill="none" stroke="#fffefe" stroke-width="1"/><line x2="6.761" transform="translate(476.654 192.69)" fill="none" stroke="#fffefe" stroke-width="1"/><line x2="45.637" transform="translate(564.547)" fill="none" stroke="#fffefe" stroke-width="1" opacity="0.35"/><line x2="27.044" transform="translate(596.662 11.832)" fill="none" stroke="#fffefe" stroke-width="1" opacity="0.35"/><line x2="16.903" transform="translate(371.857 35.495)" fill="none" stroke="#fffefe" stroke-width="1"/><line x2="37.186" transform="translate(388.76 25.354)" fill="none" stroke="#fffefe" stroke-width="1"/><line x2="16.903" transform="translate(309.318 11.832)" fill="none" stroke="#fffefe" stroke-width="1"/><line x2="21.973" transform="translate(527.361 103.106)" fill="none" stroke="#fffefe" stroke-width="1"/><line x2="27.044" transform="translate(461.441 54.088)" fill="none" stroke="#fffefe" stroke-width="1"/><line x2="40.566" transform="translate(60.849 133.531)" fill="none" stroke="#fff" stroke-width="1"/><line x2="13.522" transform="translate(50.708 145.362)" fill="none" stroke="#fff" stroke-width="1"/><line x2="3.381" transform="translate(74.371 145.362)" fill="none" stroke="#fff" stroke-width="1"/><line x2="40.566" transform="translate(542.574 294.105)" fill="none" stroke="#fff" stroke-width="1"/><line x2="13.522" transform="translate(532.432 305.937)" fill="none" stroke="#fff" stroke-width="1"/><line x2="3.381" transform="translate(556.096 305.937)" fill="none" stroke="#fff" stroke-width="1"/><line x2="40.566" transform="translate(659.202 187.619)" fill="none" stroke="#fffefe" stroke-width="1" opacity="0.35"/><line x2="15.212" transform="translate(709.909 187.619)" fill="none" stroke="#fffefe" stroke-width="1" opacity="0.35"/><line x2="37.186" transform="translate(645.68 197.76)" fill="none" stroke="#fffefe" stroke-width="1" opacity="0.35"/><line x2="21.973" transform="translate(610.184 138.601)" fill="none" stroke="#fffefe" stroke-width="1" opacity="0.35"/><line x2="6.761" transform="translate(640.609 138.601)" fill="none" stroke="#fffefe" stroke-width="1" opacity="0.35"/><line x2="37.186" transform="translate(0 231.566)" fill="none" stroke="#fffefe" stroke-width="1" opacity="0.35"/><path d="M-2.865,0H8.826" transform="translate(48.73 231.566)" fill="none" stroke="#fffefe" stroke-width="1" opacity="0.35"/><line x2="21.973" transform="translate(8.451 253.539)" fill="none" stroke="#fffefe" stroke-width="1" opacity="0.35"/><line x2="6.761" transform="translate(38.876 253.539)" fill="none" stroke="#fffefe" stroke-width="1" opacity="0.35"/></g><g transform="translate(116.477 23)" opacity="0.21"><text transform="translate(229.663 219.76)" font-size="23" font-family="RobotoCondensed-Regular, Roboto"><tspan x="-14.678" y="0">&lt;/&gt;</tspan></text><text transform="translate(-425.08 259)" font-size="23" font-family="RobotoCondensed-Regular, Roboto"><tspan x="-14.678" y="0">&lt;/&gt;</tspan></text><text transform="translate(-118 9.371)" font-size="23" font-family="RobotoCondensed-Regular, Roboto"><tspan x="-14.678" y="0">&lt;/&gt;</tspan></text></g><g transform="translate(-195.018 113.018)" opacity="0.57"><text transform="translate(506.866 54.115)" fill="#fff" font-size="23" font-family="RobotoCondensed-Regular, Roboto"><tspan x="-14.678" y="0">&lt;/&gt;</tspan></text><text transform="translate(15 307.654)" fill="#fff" font-size="23" font-family="RobotoCondensed-Regular, Roboto" opacity="0.35"><tspan x="-14.678" y="0">&lt;/&gt;</tspan></text><text transform="translate(292.133 134)" fill="#fff" font-size="23" font-family="RobotoCondensed-Regular, Roboto"><tspan x="-14.678" y="0">&lt;/&gt;</tspan></text></g></g></g></svg>